<svg version="1" xmlns="http://www.w3.org/2000/svg" width="682.667" height="682.667" viewBox="0 0 512.000000 512.000000"><path d="M310 .9c-9.2 3-17.3 9.8-21.3 17.8-3.5 7-5.2 12.5-10.2 34.3-5.4 23.2-11.9 42.8-18.8 56.5-29.9 59.8-98.3 111.7-208.3 158-8.7 3.7-17.7 8-20 9.6-8 5.5-15.2 17.8-17.9 30.6-1.9 8.7-1.9 25.8-.1 34.4 3.9 18.1 19.5 36.7 39.1 46.6 15.6 7.9 25 8.3 44.8 1.7l13.8-4.6 5.9 5.6c6.8 6.6 11.6 8.8 23.5 11.2 14.3 2.8 12.5.2 33.1 47.6 10 22.9 19.6 43.6 21.2 46.1 7.5 10.8 17.9 17 25.3 14.9 6.4-1.8 59.3-22.3 63.1-24.4 9.8-5.6 12.5-18.5 5.6-27.3-1.1-1.4-5.7-5-10.2-8-4.5-3-9.5-6.8-11-8.4-1.7-1.7-8.2-15.3-16.8-34.7-14-31.5-14.1-32-14.2-39.4-.1-7.1.1-7.8 3.1-11.6 3.7-4.7 10.6-8.7 18.9-10.9 8.2-2.3 45.2-3.2 60.5-1.6 35.9 3.8 60 12.6 99.8 36.4 23.2 13.9 31.7 17.7 41.5 18.4 14.4 1.1 24.2-4.1 30.8-16.3 18.7-34.9 8-119.1-25.9-202.4-6.3-15.6-20.3-44.7-28.7-60C403.4 61.1 360.7 13.6 330.4 2.9 323.9.6 313.9-.4 310 .9zm22.5 62.8c13.4 8.9 35.3 34 53.2 60.8 40.1 60.4 64.5 131.8 64.7 189.5.1 24.9-2.1 30.4-10.7 26-10.7-5.5-30.7-24-44.8-41.5-32.7-40.4-57.4-93.2-68.5-146.3-5.9-28.4-8.2-66.1-4.9-81.6 2.2-10.5 4-11.6 11-6.9z"/></svg>